HIERARCHY
ROOT root
{
	OFFSET 0.00 0.00 0.00
	CHANNELS 6 Xposition Yposition Zposition Zrotation Xrotation Yrotation
	JOINT lowerback
	{
		OFFSET 0 0 0
		CHANNELS 6 Xposition Yposition Zposition Zrotation Xrotation Yrotation
		JOINT upperback
		{
			OFFSET -0.214371 12.3768 -1.12219
			CHANNELS 6 Xposition Yposition Zposition Zrotation Xrotation Yrotation
			JOINT thorax
			{
				OFFSET -0.00137213 12.3873 0.296195
				CHANNELS 6 Xposition Yposition Zposition Zrotation Xrotation Yrotation
				JOINT lowerneck
				{
					OFFSET 0.0883157 12.5016 0.82912
					CHANNELS 6 Xposition Yposition Zposition Zrotation Xrotation Yrotation
					JOINT upperneck
					{
						OFFSET -1 10.1794 0.943522
						CHANNELS 6 Xposition Yposition Zposition Zrotation Xrotation Yrotation
						JOINT head
						{
							OFFSET 0.667525 10.2797 -1.57149
							CHANNELS 6 Xposition Yposition Zposition Zrotation Xrotation Yrotation
							End Site
							{
								OFFSET 0 0 0
							}
						}
					}
				}
				JOINT lclavicle
				{
					OFFSET 0.0883157 12.5016 0.82912
					CHANNELS 6 Xposition Yposition Zposition Zrotation Xrotation Yrotation
					JOINT lhumerus
					{
						OFFSET 20.61 4.45006 1.43784
						CHANNELS 6 Xposition Yposition Zposition Zrotation Xrotation Yrotation
						JOINT lradius
						{
							OFFSET 0 -30.3438 0
							CHANNELS 6 Xposition Yposition Zposition Zrotation Xrotation Yrotation
							JOINT lwrist
							{
								OFFSET 0 -18.964 0
								CHANNELS 6 Xposition Yposition Zposition Zrotation Xrotation Yrotation
								JOINT lhand
								{
									OFFSET 0 -9.48199 0
									CHANNELS 6 Xposition Yposition Zposition Zrotation Xrotation Yrotation
									JOINT lfingers
									{
										OFFSET 0 -3.17138 0
										CHANNELS 6 Xposition Yposition Zposition Zrotation Xrotation Yrotation
										End Site
										{
											OFFSET 0 -2.55685 0
										}
									}
								}
								JOINT lthumb
								{
									OFFSET 0 -9.48199 0
									CHANNELS 6 Xposition Yposition Zposition Zrotation Xrotation Yrotation
									End Site
									{
										OFFSET 0 -3.67114 0
									}
								}
							}
						}
					}
				}
				JOINT rclavicle
				{
					OFFSET 0.0883157 12.5016 0.82912
					CHANNELS 6 Xposition Yposition Zposition Zrotation Xrotation Yrotation
					JOINT rhumerus
					{
						OFFSET -20.61 4.45 1.44
						CHANNELS 6 Xposition Yposition Zposition Zrotation Xrotation Yrotation
						JOINT rradius
						{
							OFFSET 0 -29.5102 0
							CHANNELS 6 Xposition Yposition Zposition Zrotation Xrotation Yrotation
							JOINT rwrist
							{
								OFFSET 0 -19.2342 0
								CHANNELS 6 Xposition Yposition Zposition Zrotation Xrotation Yrotation
								JOINT rhand
								{
									OFFSET 0 -9.61712 0
									CHANNELS 6 Xposition Yposition Zposition Zrotation Xrotation Yrotation
									JOINT rfingers
									{
										OFFSET 0 -3.29215 0
										CHANNELS 6 Xposition Yposition Zposition Zrotation Xrotation Yrotation
										End Site
										{
											OFFSET 0 -2.557 0
										}
									}
								}
								JOINT rthumb
								{
									OFFSET 0 -9.61712 0
									CHANNELS 6 Xposition Yposition Zposition Zrotation Xrotation Yrotation
									End Site
									{
										OFFSET 0 -3.671 0
									}
								}
							}
						}
					}
				}
			}
		}
	}
	JOINT rfemur
	{
		OFFSET -8.46272 -9.62775 4.76248
		CHANNELS 6 Xposition Yposition Zposition Zrotation Xrotation Yrotation
		JOINT rtibia
		{
			OFFSET 1.00552e-005 -38.0331 0
			CHANNELS 6 Xposition Yposition Zposition Zrotation Xrotation Yrotation
			JOINT rfoot
			{
				OFFSET 1.14428e-005 -43.2815 0
				CHANNELS 6 Xposition Yposition Zposition Zrotation Xrotation Yrotation
				JOINT rtoes
				{
					OFFSET 0 -14.1868 -3.08763
					CHANNELS 6 Xposition Yposition Zposition Zrotation Xrotation Yrotation
					End Site
					{
						OFFSET 0 -7.27332 0
					}
				}
			}
		}
	}
	JOINT lfemur
	{
		OFFSET 9.10607 -9.62778 4.76249
		CHANNELS 6 Xposition Yposition Zposition Zrotation Xrotation Yrotation
		JOINT ltibia
		{
			OFFSET -1.01399e-005 -38.3535 0
			CHANNELS 6 Xposition Yposition Zposition Zrotation Xrotation Yrotation
			JOINT lfoot
			{
				OFFSET -1.12937e-005 -42.7176 0
				CHANNELS 6 Xposition Yposition Zposition Zrotation Xrotation Yrotation
				JOINT ltoes
				{
					OFFSET 0 -13.9965 -2.83857
					CHANNELS 6 Xposition Yposition Zposition Zrotation Xrotation Yrotation
					End Site
					{
						OFFSET 0 -7.16348 0
					}
				}
			}
		}
	}
}
MOTION
Frames: 4
Frame Time: 0.00833333
-11.8126	78.2704	2.09876	-4.34368	10.6641	26.9847	0 0 0 3.27613	32.8829	-3.37831	-0.214371 12.3768 -1.12219 0.94508	14.988	-3.50188	-0.00137213 12.3873 0.296195 0.265852	-0.698071	-1.70963	0.0883157 12.5016 0.82912 -3.64773	-1.12675	-2.87602	-1 10.1794 0.943522 13.2939	-24.4714	-1.81667	0.667525 10.2797 -1.57149 5.16669	-7.02058	-1.8349	0.0883157 12.5016 0.82912 -15	0	-0	20.61 4.45006 1.43784 30.1854	25.57	113.122	0 -30.3438 0 -0	64.9878	-0	0 -18.964 0 1.29247e-014	-3.78556e-015	-122.65	0 -9.48199 0 1.22245	4.37968	-2.58917e-014	0 -3.17138 0 -0	7.12502	-0	0 -9.48199 0 25	15	-1.36605e-015	0.0883157 12.5016 0.82912 15	0	-0	-20.61 4.45 1.44 -22.6906	34.9468	-131.801	0 -29.5102 0 -0	67.8095	-0	0 -19.2342 0 2.92028e-015	-5.6968e-015	144.281	0 -9.61712 0 1.22	4.38	-0	0 -3.29215 0 -0	7.12502	-0	0 -9.61712 0 25	15	-7.97034e-015	-8.46272 -9.62775 4.76248 -9.46095	-55.6293	-26.4295	1.00552e-005 -38.0331 0 -180	84.8866	180	1.14428e-005 -43.2815 0 -169.94	-84.4341	-169.893	0 -14.1868 -3.08763 -0	-37.4457	-0	9.10607 -9.62778 4.76249 -17.8379	-54.5167	2.3654	-1.01399e-005 -38.3535 0 -0	0.0119919	-0	-1.12937e-005 -42.7176 0 47.0726	-60.9273	50.8905	0 -13.9965 -2.83857 -0	-29.7913	-0
-11.7441	78.372	2.32318	-4.48211	10.6749	27.1217	0 0 0 3.40807	32.814	-3.41384	-0.214371 12.3768 -1.12219 0.976577	14.9893	-3.5067	-0.00137213 12.3873 0.296195 0.234026	-0.685282	-1.70899	0.0883157 12.5016 0.82912 -3.69143	-1.1021	-2.91151	-1 10.1794 0.943522 13.3358	-24.4855	-1.86057	0.667525 10.2797 -1.57149 5.19564	-7.02382	-1.85666	0.0883157 12.5016 0.82912 -15	0	-0	20.61 4.45006 1.43784 30.2565	25.4409	113.067	0 -30.3438 0 -0	64.9599	-0	0 -18.964 0 1.29217e-014	-3.79019e-015	-122.695	0 -9.48199 0 1.22245	4.37968	-2.58917e-014	0 -3.17138 0 -0	7.12502	-0	0 -9.48199 0 25	15	-1.36605e-015	0.0883157 12.5016 0.82912 15	0	-0	-20.61 4.45 1.44 -22.5459	34.8867	-131.953	0 -29.5102 0 -0	67.7261	-0	0 -19.2342 0 2.92297e-015	-5.69873e-015	144.308	0 -9.61712 0 1.22	4.38	-0	0 -3.29215 0 -0	7.12502	-0	0 -9.61712 0 25	15	-7.97034e-015	-8.46272 -9.62775 4.76248 -9.42581	-55.4194	-26.5229	1.00552e-005 -38.0331 0 -180	85.0179	180	1.14428e-005 -43.2815 0 -171.741	-84.58	-171.704	0 -14.1868 -3.08763 -0	-37.566	-0	9.10607 -9.62778 4.76249 -17.9833	-54.5512	2.13615	-1.01399e-005 -38.3535 0 -0	0.059399	-0	-1.12937e-005 -42.7176 0 46.554	-60.7717	50.4235	0 -13.9965 -2.83857 -0	-29.3191	-0
-11.6676	78.4979	2.56021	-4.59196	10.6877	27.2576	0 0 0 3.5248	32.7154	-3.44697	-0.214371 12.3768 -1.12219 1.00287	14.999	-3.51507	-0.00137213 12.3873 0.296195 0.202294	-0.653023	-1.70877	0.0883157 12.5016 0.82912 -3.73922	-1.07127	-2.94885	-1 10.1794 0.943522 13.3708	-24.4928	-1.90938	0.667525 10.2797 -1.57149 5.22341	-7.02422	-1.87958	0.0883157 12.5016 0.82912 -15	0	-0	20.61 4.45006 1.43784 30.3282	25.3378	112.99	0 -30.3438 0 -0	64.916	-0	0 -18.964 0 1.2919e-014	-3.79442e-015	-122.736	0 -9.48199 0 1.22245	4.37968	-2.58917e-014	0 -3.17138 0 -0	7.12502	-0	0 -9.48199 0 25	15	-1.36605e-015	0.0883157 12.5016 0.82912 15	0	-0	-20.61 4.45 1.44 -22.4069	34.8557	-132.058	0 -29.5102 0 -0	67.6437	-0	0 -19.2342 0 2.89824e-015	-5.68088e-015	144.059	0 -9.61712 0 1.22	4.38	-0	0 -3.29215 0 -0	7.12502	-0	0 -9.61712 0 25	15	-7.97034e-015	-8.46272 -9.62775 4.76248 -9.37804	-55.1641	-26.5711	1.00552e-005 -38.0331 0 -180	85.1982	180	1.14428e-005 -43.2815 0 -173.363	-84.6994	-173.335	0 -14.1868 -3.08763 -0	-37.6804	-0	9.10607 -9.62778 4.76249 -18.1541	-54.5753	1.90273	-1.01399e-005 -38.3535 0 -0	0.114445	-0	-1.12937e-005 -42.7176 0 46.0291	-60.6673	49.9354	0 -13.9965 -2.83857 -0	-28.8342	-0
-11.5803	78.6486	2.81082	-4.67319	10.7037	27.3903	0 0 0 3.62499	32.5865	-3.47756	-0.214371 12.3768 -1.12219 1.02364	15.0149	-3.52727	-0.00137213 12.3873 0.296195 0.170948	-0.601952	-1.70902	0.0883157 12.5016 0.82912 -3.78989	-1.03332	-2.98635	-1 10.1794 0.943522 13.3992	-24.4916	-1.96073	0.667525 10.2797 -1.57149 5.24939	-7.02403	-1.90262	0.0883157 12.5016 0.82912 -15	0	-0	20.61 4.45006 1.43784 30.4005	25.2607	112.886	0 -30.3438 0 -0	64.8571	-0	0 -18.964 0 1.29165e-014	-3.79823e-015	-122.773	0 -9.48199 0 1.22245	4.37968	-2.58917e-014	0 -3.17138 0 -0	7.12502	-0	0 -9.48199 0 25	15	-1.36605e-015	0.0883157 12.5016 0.82912 15	0	-0	-20.61 4.45 1.44 -22.2787	34.8552	-132.11	0 -29.5102 0 -0	67.5621	-0	0 -19.2342 0 2.84715e-015	-5.64349e-015	143.542	0 -9.61712 0 1.22	4.38	-0	0 -3.29215 0 -0	7.12502	-0	0 -9.61712 0 25	15	-7.97034e-015	-8.46272 -9.62775 4.76248 -9.32119	-54.8635	-26.5782	1.00552e-005 -38.0331 0 -180	85.4266	180	1.14428e-005 -43.2815 0 -174.804	-84.7938	-174.783	0 -14.1868 -3.08763 -0	-37.7912	-0	9.10607 -9.62778 4.76249 -18.3475	-54.5832	1.66711	-1.01399e-005 -38.3535 0 -0	0.173445	-0	-1.12937e-005 -42.7176 0 45.4877	-60.6129	49.4162	0 -13.9965 -2.83857 -0	-28.3454	-0
